<svg width="64" height="64" viewBox="0 0 64 64" fill="none" xmlns="http://www.w3.org/2000/svg">
<g id="QR Code" clip-path="url(#clip0_230_21)">
<path id="Vector" d="M64 0H0V64H64V0Z" fill="white"/>
<g id="Vector_2">
<path d="M6.66667 4H4V6.66667H6.66667V4Z" fill="black"/>
<path d="M9.33333 4H6.66667V6.66667H9.33333V4Z" fill="black"/>
<path d="M12 4H9.33333V6.66667H12V4Z" fill="black"/>
<path d="M14.6667 4H12V6.66667H14.6667V4Z" fill="black"/>
<path d="M17.3333 4H14.6667V6.66667H17.3333V4Z" fill="black"/>
<path d="M20 4H17.3333V6.66667H20V4Z" fill="black"/>
<path d="M22.6667 4H20V6.66667H22.6667V4Z" fill="black"/>
<path d="M28 4H25.3333V6.66667H28V4Z" fill="black"/>
<path d="M30.6667 4H28V6.66667H30.6667V4Z" fill="black"/>
<path d="M44 4H41.3333V6.66667H44V4Z" fill="black"/>
<path d="M46.6667 4H44V6.66667H46.6667V4Z" fill="black"/>
<path d="M49.3333 4H46.6667V6.66667H49.3333V4Z" fill="black"/>
<path d="M52 4H49.3333V6.66667H52V4Z" fill="black"/>
<path d="M54.6667 4H52V6.66667H54.6667V4Z" fill="black"/>
<path d="M57.3333 4H54.6667V6.66667H57.3333V4Z" fill="black"/>
<path d="M60 4H57.3333V6.66667H60V4Z" fill="black"/>
<path d="M6.66667 6.66667H4V9.33333H6.66667V6.66667Z" fill="black"/>
<path d="M22.6667 6.66667H20V9.33333H22.6667V6.66667Z" fill="black"/>
<path d="M44 6.66667H41.3333V9.33333H44V6.66667Z" fill="black"/>
<path d="M60 6.66667H57.3333V9.33333H60V6.66667Z" fill="black"/>
<path d="M6.66667 9.33333H4V12H6.66667V9.33333Z" fill="black"/>
<path d="M12 9.33333H9.33333V12H12V9.33333Z" fill="black"/>
<path d="M14.6667 9.33333H12V12H14.6667V9.33333Z" fill="black"/>
<path d="M17.3333 9.33333H14.6667V12H17.3333V9.33333Z" fill="black"/>
<path d="M22.6667 9.33333H20V12H22.6667V9.33333Z" fill="black"/>
<path d="M33.3333 9.33333H30.6667V12H33.3333V9.33333Z" fill="black"/>
<path d="M44 9.33333H41.3333V12H44V9.33333Z" fill="black"/>
<path d="M49.3333 9.33333H46.6667V12H49.3333V9.33333Z" fill="black"/>
<path d="M52 9.33333H49.3333V12H52V9.33333Z" fill="black"/>
<path d="M54.6667 9.33333H52V12H54.6667V9.33333Z" fill="black"/>
<path d="M60 9.33333H57.3333V12H60V9.33333Z" fill="black"/>
<path d="M6.66667 12H4V14.6667H6.66667V12Z" fill="black"/>
<path d="M12 12H9.33333V14.6667H12V12Z" fill="black"/>
<path d="M14.6667 12H12V14.6667H14.6667V12Z" fill="black"/>
<path d="M17.3333 12H14.6667V14.6667H17.3333V12Z" fill="black"/>
<path d="M22.6667 12H20V14.6667H22.6667V12Z" fill="black"/>
<path d="M28 12H25.3333V14.6667H28V12Z" fill="black"/>
<path d="M36 12H33.3333L33.3333 14.6667H36V12Z" fill="black"/>
<path d="M44 12H41.3333V14.6667H44V12Z" fill="black"/>
<path d="M49.3333 12H46.6667V14.6667H49.3333V12Z" fill="black"/>
<path d="M52 12H49.3333V14.6667H52V12Z" fill="black"/>
<path d="M54.6667 12H52V14.6667H54.6667V12Z" fill="black"/>
<path d="M60 12H57.3333V14.6667H60V12Z" fill="black"/>
<path d="M6.66667 14.6667H4V17.3333H6.66667V14.6667Z" fill="black"/>
<path d="M12 14.6667H9.33333V17.3333H12V14.6667Z" fill="black"/>
<path d="M14.6667 14.6667H12V17.3333H14.6667V14.6667Z" fill="black"/>
<path d="M17.3333 14.6667H14.6667V17.3333H17.3333V14.6667Z" fill="black"/>
<path d="M22.6667 14.6667H20V17.3333H22.6667V14.6667Z" fill="black"/>
<path d="M33.3333 14.6667H30.6667V17.3333H33.3333L33.3333 14.6667Z" fill="black"/>
<path d="M36 14.6667H33.3333L33.3333 17.3333H36V14.6667Z" fill="black"/>
<path d="M38.6667 14.6667H36V17.3333H38.6667V14.6667Z" fill="black"/>
<path d="M44 14.6667H41.3333V17.3333H44V14.6667Z" fill="black"/>
<path d="M49.3333 14.6667H46.6667V17.3333H49.3333V14.6667Z" fill="black"/>
<path d="M52 14.6667H49.3333V17.3333H52V14.6667Z" fill="black"/>
<path d="M54.6667 14.6667H52V17.3333H54.6667V14.6667Z" fill="black"/>
<path d="M60 14.6667H57.3333V17.3333H60V14.6667Z" fill="black"/>
<path d="M6.66667 17.3333H4V20H6.66667V17.3333Z" fill="black"/>
<path d="M22.6667 17.3333H20V20H22.6667V17.3333Z" fill="black"/>
<path d="M28 17.3333H25.3333V20H28V17.3333Z" fill="black"/>
<path d="M30.6667 17.3333H28V20H30.6667L30.6667 17.3333Z" fill="black"/>
<path d="M33.3333 17.3333H30.6667L30.6667 20H33.3333V17.3333Z" fill="black"/>
<path d="M38.6667 17.3333H36V20H38.6667V17.3333Z" fill="black"/>
<path d="M44 17.3333H41.3333V20H44V17.3333Z" fill="black"/>
<path d="M60 17.3333H57.3333V20H60V17.3333Z" fill="black"/>
<path d="M6.66667 20H4V22.6667H6.66667V20Z" fill="black"/>
<path d="M9.33333 20H6.66667V22.6667H9.33333V20Z" fill="black"/>
<path d="M12 20H9.33333V22.6667H12V20Z" fill="black"/>
<path d="M14.6667 20H12V22.6667H14.6667V20Z" fill="black"/>
<path d="M17.3333 20H14.6667V22.6667H17.3333V20Z" fill="black"/>
<path d="M20 20H17.3333V22.6667H20V20Z" fill="black"/>
<path d="M22.6667 20H20V22.6667H22.6667V20Z" fill="black"/>
<path d="M28 20H25.3333V22.6667H28V20Z" fill="black"/>
<path d="M33.3333 20H30.6667L30.6667 22.6667H33.3333V20Z" fill="black"/>
<path d="M38.6667 20H36V22.6667H38.6667V20Z" fill="black"/>
<path d="M44 20H41.3333V22.6667H44V20Z" fill="black"/>
<path d="M46.6667 20H44V22.6667H46.6667V20Z" fill="black"/>
<path d="M49.3333 20H46.6667V22.6667H49.3333V20Z" fill="black"/>
<path d="M52 20H49.3333V22.6667H52V20Z" fill="black"/>
<path d="M54.6667 20H52V22.6667H54.6667V20Z" fill="black"/>
<path d="M57.3333 20H54.6667V22.6667H57.3333V20Z" fill="black"/>
<path d="M60 20H57.3333V22.6667H60V20Z" fill="black"/>
<path d="M30.6667 22.6667H28L28 25.3333H30.6667L30.6667 22.6667Z" fill="black"/>
<path d="M33.3333 22.6667H30.6667L30.6667 25.3333H33.3333V22.6667Z" fill="black"/>
<path d="M36 22.6667H33.3333V25.3333H36V22.6667Z" fill="black"/>
<path d="M20 25.3333H17.3333V28H20V25.3333Z" fill="black"/>
<path d="M22.6667 25.3333H20V28H22.6667V25.3333Z" fill="black"/>
<path d="M28 25.3333L25.3333 25.3333V28H28L28 25.3333Z" fill="black"/>
<path d="M33.3333 25.3333H30.6667L30.6667 28H33.3333V25.3333Z" fill="black"/>
<path d="M41.3333 25.3333H38.6667V28H41.3333V25.3333Z" fill="black"/>
<path d="M46.6667 25.3333H44V28H46.6667V25.3333Z" fill="black"/>
<path d="M52 25.3333H49.3333V28H52V25.3333Z" fill="black"/>
<path d="M60 25.3333H57.3333V28H60V25.3333Z" fill="black"/>
<path d="M9.33333 28H6.66667V30.6667H9.33333V28Z" fill="black"/>
<path d="M12 28H9.33333V30.6667H12V28Z" fill="black"/>
<path d="M14.6667 28H12V30.6667H14.6667V28Z" fill="black"/>
<path d="M17.3333 28L14.6667 28V30.6667H17.3333V28Z" fill="black"/>
<path d="M25.3333 28H22.6667V30.6667H25.3333L25.3333 28Z" fill="black"/>
<path d="M33.3333 28H30.6667V30.6667H33.3333V28Z" fill="black"/>
<path d="M41.3333 28H38.6667V30.6667H41.3333V28Z" fill="black"/>
<path d="M46.6667 28H44V30.6667H46.6667V28Z" fill="black"/>
<path d="M52 28H49.3333V30.6667H52V28Z" fill="black"/>
<path d="M60 28H57.3333V30.6667H60V28Z" fill="black"/>
<path d="M9.33333 30.6667H6.66667V33.3333H9.33333V30.6667Z" fill="black"/>
<path d="M12 30.6667H9.33333V33.3333H12V30.6667Z" fill="black"/>
<path d="M14.6667 30.6667H12V33.3333H14.6667V30.6667Z" fill="black"/>
<path d="M17.3333 30.6667H14.6667V33.3333H17.3333V30.6667Z" fill="black"/>
<path d="M20 30.6667L17.3333 30.6667V33.3333H20V30.6667Z" fill="black"/>
<path d="M22.6667 30.6667L20 30.6667V33.3333H22.6667V30.6667Z" fill="black"/>
<path d="M25.3333 30.6667H22.6667V33.3333H25.3333V30.6667Z" fill="black"/>
<path d="M30.6667 30.6667L28 30.6667V33.3333H30.6667L30.6667 30.6667Z" fill="black"/>
<path d="M38.6667 30.6667L36 30.6667V33.3333H38.6667V30.6667Z" fill="black"/>
<path d="M46.6667 30.6667H44V33.3333H46.6667V30.6667Z" fill="black"/>
<path d="M52 30.6667H49.3333V33.3333H52V30.6667Z" fill="black"/>
<path d="M54.6667 30.6667L52 30.6667V33.3333H54.6667V30.6667Z" fill="black"/>
<path d="M6.66667 33.3333L4 33.3333V36H6.66667V33.3333Z" fill="black"/>
<path d="M20 33.3333H17.3333V36H20V33.3333Z" fill="black"/>
<path d="M25.3333 33.3333H22.6667V36H25.3333V33.3333Z" fill="black"/>
<path d="M36 33.3333L33.3333 33.3333V36H36V33.3333Z" fill="black"/>
<path d="M41.3333 33.3333L38.6667 33.3333V36H41.3333V33.3333Z" fill="black"/>
<path d="M46.6667 33.3333H44V36H46.6667V33.3333Z" fill="black"/>
<path d="M49.3333 33.3333H46.6667V36H49.3333V33.3333Z" fill="black"/>
<path d="M57.3333 33.3333L54.6667 33.3333V36H57.3333V33.3333Z" fill="black"/>
<path d="M60 33.3333H57.3333V36H60V33.3333Z" fill="black"/>
<path d="M6.66667 36H4V38.6667H6.66667V36Z" fill="black"/>
<path d="M9.33333 36H6.66667V38.6667H9.33333V36Z" fill="black"/>
<path d="M12 36H9.33333V38.6667H12V36Z" fill="black"/>
<path d="M17.3333 36H14.6667V38.6667H17.3333V36Z" fill="black"/>
<path d="M20 36H17.3333V38.6667H20V36Z" fill="black"/>
<path d="M22.6667 36H20V38.6667H22.6667V36Z" fill="black"/>
<path d="M25.3333 36H22.6667V38.6667H25.3333V36Z" fill="black"/>
<path d="M33.3333 36H30.6667V38.6667H33.3333L33.3333 36Z" fill="black"/>
<path d="M38.6667 36H36V38.6667H38.6667V36Z" fill="black"/>
<path d="M46.6667 36H44V38.6667H46.6667V36Z" fill="black"/>
<path d="M54.6667 36H52V38.6667H54.6667V36Z" fill="black"/>
<path d="M57.3333 36H54.6667V38.6667H57.3333V36Z" fill="black"/>
<path d="M60 36H57.3333V38.6667H60V36Z" fill="black"/>
<path d="M28 38.6667H25.3333L25.3333 41.3333H28V38.6667Z" fill="black"/>
<path d="M30.6667 38.6667H28V41.3333H30.6667L30.6667 38.6667Z" fill="black"/>
<path d="M33.3333 38.6667H30.6667L30.6667 41.3333H33.3333V38.6667Z" fill="black"/>
<path d="M38.6667 38.6667H36V41.3333H38.6667V38.6667Z" fill="black"/>
<path d="M41.3333 38.6667H38.6667V41.3333H41.3333V38.6667Z" fill="black"/>
<path d="M49.3333 38.6667H46.6667V41.3333H49.3333V38.6667Z" fill="black"/>
<path d="M54.6667 38.6667H52V41.3333H54.6667V38.6667Z" fill="black"/>
<path d="M57.3333 38.6667H54.6667V41.3333H57.3333V38.6667Z" fill="black"/>
<path d="M60 38.6667H57.3333V41.3333H60V38.6667Z" fill="black"/>
<path d="M6.66667 41.3333H4V44H6.66667V41.3333Z" fill="black"/>
<path d="M9.33333 41.3333H6.66667V44H9.33333V41.3333Z" fill="black"/>
<path d="M12 41.3333H9.33333V44H12V41.3333Z" fill="black"/>
<path d="M14.6667 41.3333H12V44H14.6667V41.3333Z" fill="black"/>
<path d="M17.3333 41.3333H14.6667V44H17.3333V41.3333Z" fill="black"/>
<path d="M20 41.3333H17.3333V44H20V41.3333Z" fill="black"/>
<path d="M22.6667 41.3333H20V44H22.6667V41.3333Z" fill="black"/>
<path d="M36 41.3333H33.3333L33.3333 44H36V41.3333Z" fill="black"/>
<path d="M52 41.3333H49.3333V44H52V41.3333Z" fill="black"/>
<path d="M54.6667 41.3333H52V44H54.6667V41.3333Z" fill="black"/>
<path d="M60 41.3333H57.3333V44H60V41.3333Z" fill="black"/>
<path d="M6.66667 44H4V46.6667H6.66667V44Z" fill="black"/>
<path d="M22.6667 44H20V46.6667H22.6667V44Z" fill="black"/>
<path d="M28 44H25.3333V46.6667H28V44Z" fill="black"/>
<path d="M33.3333 44H30.6667V46.6667H33.3333L33.3333 44Z" fill="black"/>
<path d="M41.3333 44H38.6667V46.6667H41.3333V44Z" fill="black"/>
<path d="M44 44H41.3333V46.6667H44V44Z" fill="black"/>
<path d="M46.6667 44H44V46.6667H46.6667V44Z" fill="black"/>
<path d="M49.3333 44H46.6667V46.6667H49.3333V44Z" fill="black"/>
<path d="M54.6667 44H52V46.6667H54.6667V44Z" fill="black"/>
<path d="M6.66667 46.6667H4V49.3333H6.66667V46.6667Z" fill="black"/>
<path d="M12 46.6667H9.33333V49.3333H12V46.6667Z" fill="black"/>
<path d="M14.6667 46.6667H12V49.3333H14.6667V46.6667Z" fill="black"/>
<path d="M17.3333 46.6667H14.6667V49.3333H17.3333V46.6667Z" fill="black"/>
<path d="M22.6667 46.6667H20V49.3333H22.6667V46.6667Z" fill="black"/>
<path d="M30.6667 46.6667H28L28 49.3333H30.6667L30.6667 46.6667Z" fill="black"/>
<path d="M38.6667 46.6667H36V49.3333H38.6667V46.6667Z" fill="black"/>
<path d="M44 46.6667H41.3333V49.3333H44V46.6667Z" fill="black"/>
<path d="M52 46.6667H49.3333V49.3333H52V46.6667Z" fill="black"/>
<path d="M54.6667 46.6667H52V49.3333H54.6667V46.6667Z" fill="black"/>
<path d="M60 46.6667H57.3333V49.3333H60V46.6667Z" fill="black"/>
<path d="M6.66667 49.3333H4V52H6.66667V49.3333Z" fill="black"/>
<path d="M12 49.3333H9.33333V52H12V49.3333Z" fill="black"/>
<path d="M14.6667 49.3333H12V52H14.6667V49.3333Z" fill="black"/>
<path d="M17.3333 49.3333H14.6667V52H17.3333V49.3333Z" fill="black"/>
<path d="M22.6667 49.3333H20V52H22.6667V49.3333Z" fill="black"/>
<path d="M33.3333 49.3333H30.6667L30.6667 52H33.3333V49.3333Z" fill="black"/>
<path d="M36 49.3333H33.3333V52H36V49.3333Z" fill="black"/>
<path d="M52 49.3333H49.3333V52H52V49.3333Z" fill="black"/>
<path d="M6.66667 52H4V54.6667H6.66667V52Z" fill="black"/>
<path d="M12 52H9.33333V54.6667H12V52Z" fill="black"/>
<path d="M14.6667 52H12V54.6667H14.6667V52Z" fill="black"/>
<path d="M17.3333 52H14.6667V54.6667H17.3333V52Z" fill="black"/>
<path d="M22.6667 52H20V54.6667H22.6667V52Z" fill="black"/>
<path d="M33.3333 52H30.6667V54.6667H33.3333V52Z" fill="black"/>
<path d="M44 52H41.3333V54.6667H44V52Z" fill="black"/>
<path d="M54.6667 52H52V54.6667H54.6667V52Z" fill="black"/>
<path d="M6.66667 54.6667H4V57.3333H6.66667V54.6667Z" fill="black"/>
<path d="M22.6667 54.6667H20V57.3333H22.6667V54.6667Z" fill="black"/>
<path d="M30.6667 54.6667H28V57.3333H30.6667L30.6667 54.6667Z" fill="black"/>
<path d="M41.3333 54.6667H38.6667V57.3333H41.3333V54.6667Z" fill="black"/>
<path d="M44 54.6667H41.3333V57.3333H44V54.6667Z" fill="black"/>
<path d="M49.3333 54.6667H46.6667V57.3333H49.3333V54.6667Z" fill="black"/>
<path d="M52 54.6667H49.3333V57.3333H52V54.6667Z" fill="black"/>
<path d="M60 54.6667H57.3333V57.3333H60V54.6667Z" fill="black"/>
<path d="M6.66667 57.3333H4V60H6.66667V57.3333Z" fill="black"/>
<path d="M9.33333 57.3333H6.66667V60H9.33333V57.3333Z" fill="black"/>
<path d="M12 57.3333H9.33333V60H12V57.3333Z" fill="black"/>
<path d="M14.6667 57.3333H12V60H14.6667V57.3333Z" fill="black"/>
<path d="M17.3333 57.3333H14.6667V60H17.3333V57.3333Z" fill="black"/>
<path d="M20 57.3333H17.3333V60H20V57.3333Z" fill="black"/>
<path d="M22.6667 57.3333H20V60H22.6667V57.3333Z" fill="black"/>
<path d="M30.6667 57.3333H28V60H30.6667V57.3333Z" fill="black"/>
<path d="M33.3333 57.3333H30.6667V60H33.3333V57.3333Z" fill="black"/>
<path d="M38.6667 57.3333H36V60H38.6667V57.3333Z" fill="black"/>
<path d="M41.3333 57.3333H38.6667V60H41.3333V57.3333Z" fill="black"/>
<path d="M46.6667 57.3333H44V60H46.6667V57.3333Z" fill="black"/>
<path d="M52 57.3333H49.3333V60H52V57.3333Z" fill="black"/>
<path d="M54.6667 57.3333H52V60H54.6667V57.3333Z" fill="black"/>
</g>
</g>
<defs>
<clipPath id="clip0_230_21">
<rect width="64" height="64" fill="white"/>
</clipPath>
</defs>
</svg>
